<svg xmlns="http://www.w3.org/2000/svg" width="33" height="32" viewBox="0 0 33 32"><path d="M29.071 0H3.93A3.43 3.43 0 00.5 3.429V28.57A3.43 3.43 0 003.929 32H29.07a3.43 3.43 0 003.429-3.429V3.43A3.43 3.43 0 0029.071 0zm-8.764 27.407c-.6.107-.821-.264-.821-.571 0-.386.014-2.357.014-3.95 0-1.115-.371-1.822-.807-2.193 2.643-.293 5.428-.657 5.428-5.222 0-1.3-.464-1.95-1.221-2.785.121-.307.529-1.572-.121-3.215-.993-.307-3.265 1.279-3.265 1.279-.943-.264-1.964-.4-2.971-.4-1.007 0-2.029.136-2.972.4 0 0-2.271-1.586-3.264-1.279-.65 1.636-.25 2.9-.121 3.215-.757.835-1.115 1.485-1.115 2.785 0 4.543 2.665 4.929 5.308 5.222-.343.307-.65.836-.758 1.593-.678.307-2.414.835-3.45-.993a2.488 2.488 0 00-1.821-1.222c-1.157-.014-.079.729-.079.729.772.357 1.315 1.729 1.315 1.729.693 2.121 4.007 1.407 4.007 1.407 0 .993.014 2.607.014 2.9 0 .307-.214.678-.821.571C8.07 25.83 4.77 21.343 4.77 16.1c0-6.557 5.015-11.536 11.572-11.536 6.557 0 11.871 4.979 11.871 11.536.007 5.243-3.193 9.736-7.907 11.307zM13.3 23.043c-.136.028-.264-.029-.279-.122-.014-.107.079-.2.215-.228.135-.014.264.043.278.136.022.092-.071.185-.214.214zm-.679-.064c0 .092-.107.171-.25.171-.157.014-.264-.064-.264-.171 0-.093.107-.172.25-.172.136-.014.264.064.264.172zm-.978-.079c-.029.093-.172.136-.293.093-.136-.029-.229-.136-.2-.229.029-.093.171-.135.293-.107.143.043.236.15.2.243zm-.879-.386c-.064.079-.2.065-.307-.043-.107-.092-.136-.228-.064-.292.064-.079.2-.065.307.042.093.093.129.236.064.293zm-.65-.65c-.064.043-.185 0-.264-.107-.079-.107-.079-.228 0-.278.079-.065.2-.015.264.092.079.108.079.236 0 .293zm-.464-.693c-.064.065-.171.029-.25-.042-.079-.093-.093-.2-.029-.25.065-.065.172-.029.25.042.079.093.093.2.029.25zm-.479-.528c-.028.064-.121.078-.2.028-.092-.042-.135-.121-.107-.185.029-.043.107-.065.2-.029.093.05.136.129.107.186z"/></svg>