<svg xmlns="http://www.w3.org/2000/svg" width="324" height="60" viewBox="0 0 324 60"><g fill="none" fill-rule="evenodd"><path fill="#D0021B" d="M5.05 45.384a2.83 2.83 0 110-5.66h37.973a2.83 2.83 0 00.172-5.656l-.172-.005H8.583a2.83 2.83 0 010-5.66h37.973a2.83 2.83 0 00.172-5.656l-.172-.005h-34.44a2.83 2.83 0 110-5.66H50.09a2.83 2.83 0 00.172-5.656l-.172-.005H24.116c5.167-5.653 12.597-9.199 20.854-9.199 15.61 0 28.264 12.672 28.264 28.303 0 15.632-12.655 28.303-28.264 28.303a28.147 28.147 0 01-19.468-7.783H39.49a2.83 2.83 0 00.173-5.655l-.173-.006H5.05z"/><g fill-rule="nonzero"><path fill="#000" d="M91.964 46.89V16.96h6.648v-2.053h-6.648V8.498c0-1.783.445-2.976 1.336-3.577.89-.602 1.998-.903 3.324-.903.704 0 1.636.104 2.796.311V2.276c-1.16-.207-2.092-.311-2.796-.311-.953 0-1.854.124-2.703.373a6.673 6.673 0 00-2.237 1.12c-.642.498-1.15 1.151-1.522 1.96-.373.81-.56 1.774-.56 2.894v6.595h-5.716v2.054h5.717v29.928h2.36zm18.33.746c1.533 0 2.941-.187 4.226-.56 1.284-.373 2.433-.892 3.448-1.555a11.453 11.453 0 002.579-2.272 9.867 9.867 0 001.615-2.706h.125v1.68c0 .663.051 1.275.155 1.835.104.56.3 1.048.59 1.463.29.414.715.746 1.274.995.56.249 1.315.373 2.268.373.663 0 1.305-.083 1.926-.248v-1.992c-.745.125-1.325.187-1.74.187-.538 0-.952-.114-1.242-.342a1.869 1.869 0 01-.622-.902 4.59 4.59 0 01-.217-1.245c-.02-.456-.031-.912-.031-1.369V22.374c0-2.448-.88-4.428-2.641-5.942-1.76-1.514-4.567-2.271-8.42-2.271-3.852 0-6.824.881-8.916 2.644-2.092 1.763-3.22 4.407-3.387 7.933h2.362c.165-2.862 1.128-4.998 2.889-6.409 1.76-1.41 4.07-2.115 6.928-2.115 1.616 0 2.983.166 4.101.498 1.119.332 2.03.788 2.734 1.369.704.58 1.222 1.244 1.554 1.99.331.747.497 1.556.497 2.427 0 1.12-.062 2.054-.187 2.8-.124.747-.435 1.359-.932 1.836-.497.477-1.232.85-2.206 1.12-.973.27-2.309.467-4.007.591l-3.666.311c-1.285.125-2.62.332-4.008.622s-2.651.778-3.79 1.463c-1.14.684-2.082 1.617-2.828 2.8-.746 1.182-1.118 2.706-1.118 4.573 0 3.07.932 5.34 2.796 6.813 1.864 1.473 4.494 2.21 7.891 2.21zm.062-2.053c-2.61 0-4.66-.57-6.151-1.711-1.491-1.141-2.237-2.894-2.237-5.258 0-1.493.29-2.707.87-3.64a6.427 6.427 0 012.268-2.209c.932-.54 1.978-.923 3.138-1.151 1.16-.228 2.32-.405 3.48-.529l3.976-.373a32.831 32.831 0 003.946-.56c1.18-.25 2.06-.726 2.64-1.431v5.973c0 .415-.113 1.213-.341 2.395-.228 1.183-.756 2.406-1.585 3.672-.828 1.265-2.03 2.385-3.604 3.36-1.574.974-3.707 1.462-6.4 1.462zm32.25 2.053c1.408 0 2.847-.135 4.318-.404 1.47-.27 2.806-.747 4.008-1.431a9.11 9.11 0 002.982-2.707c.787-1.12 1.181-2.551 1.181-4.293 0-1.66-.29-3.029-.87-4.107a7.332 7.332 0 00-2.392-2.645c-1.015-.684-2.216-1.223-3.604-1.617a48.457 48.457 0 00-4.443-1.027c-1.284-.29-2.558-.58-3.821-.871-1.264-.29-2.403-.674-3.418-1.151-1.015-.477-1.833-1.11-2.454-1.898-.622-.788-.932-1.825-.932-3.111 0-1.12.28-2.074.838-2.862a6.622 6.622 0 012.144-1.93c.87-.497 1.854-.85 2.952-1.057a17.54 17.54 0 013.262-.311c1.325 0 2.568.155 3.728.467 1.16.31 2.165.788 3.014 1.43.849.644 1.512 1.484 1.988 2.52.477 1.038.715 2.282.715 3.734h2.36c0-1.825-.3-3.38-.9-4.667-.6-1.286-1.43-2.343-2.486-3.173-1.056-.83-2.309-1.431-3.759-1.804-1.45-.374-3.003-.56-4.66-.56-1.367 0-2.734.134-4.101.404s-2.6.716-3.697 1.338a7.866 7.866 0 00-2.703 2.52c-.704 1.058-1.057 2.375-1.057 3.95 0 2.2.539 3.869 1.616 5.01 1.077 1.14 2.434 2.022 4.07 2.644a27.365 27.365 0 005.282 1.4 41.17 41.17 0 015.281 1.214c1.637.497 2.993 1.203 4.07 2.115 1.077.913 1.616 2.26 1.616 4.045 0 1.368-.332 2.499-.994 3.39a6.839 6.839 0 01-2.517 2.085c-1.015.498-2.113.84-3.293 1.027-1.18.186-2.289.28-3.325.28-1.45 0-2.796-.208-4.038-.622a9.51 9.51 0 01-3.263-1.836 9.569 9.569 0 01-2.268-2.924c-.58-1.141-.911-2.458-.994-3.952h-2.361c.041 1.867.393 3.506 1.056 4.916a10.372 10.372 0 002.734 3.578c1.16.975 2.517 1.7 4.07 2.178 1.554.477 3.242.715 5.064.715zm25.134-.778c1.139.104 2.31.114 3.51.031v-2.053c-1.118.042-2.102.02-2.95-.062-.85-.083-1.575-.322-2.176-.716-.6-.394-1.046-.964-1.336-1.71-.29-.747-.435-1.764-.435-3.05V16.961h6.96v-2.054h-6.96V4.952h-2.36v9.955h-5.904v2.054h5.903v22.337c-.083 1.826.135 3.257.653 4.294.517 1.037 1.211 1.814 2.081 2.333.87.519 1.875.83 3.014.933z"/><path fill="#D0021B" d="M181.938 9.183v-6.72h-7.083v6.72h7.083zm0 37.706V14.721h-7.083v32.168h7.083zm20.505.872c4.143 0 7.467-1.11 9.973-3.33 2.507-2.219 4.091-5.423 4.754-9.613h-7.084c-.331 2.323-1.17 4.128-2.516 5.414-1.347 1.286-3.055 1.929-5.127 1.929-1.532 0-2.837-.322-3.914-.965a8.081 8.081 0 01-2.641-2.52c-.684-1.037-1.18-2.22-1.491-3.547a17.422 17.422 0 01-.466-3.982c0-2.447.29-4.428.87-5.942.58-1.514 1.304-2.696 2.174-3.547.87-.85 1.823-1.43 2.859-1.742 1.035-.311 2.009-.467 2.92-.467 1.988 0 3.635.509 4.94 1.525 1.305 1.016 2.102 2.52 2.392 4.511h7.084c-.166-1.991-.663-3.713-1.491-5.164a11.42 11.42 0 00-3.2-3.61c-1.305-.953-2.797-1.669-4.474-2.146a19.342 19.342 0 00-5.313-.716c-2.651 0-4.96.446-6.928 1.338-1.968.892-3.615 2.116-4.94 3.671-1.326 1.556-2.32 3.391-2.983 5.507-.663 2.116-.994 4.376-.994 6.782 0 2.365.342 4.563 1.025 6.596.684 2.032 1.688 3.785 3.014 5.258 1.325 1.472 2.951 2.634 4.878 3.484 1.926.85 4.152 1.276 6.68 1.276zm33.99 0c2.568 0 4.856-.426 6.865-1.276 2.01-.85 3.708-2.022 5.096-3.516 1.387-1.493 2.444-3.277 3.169-5.35.725-2.075 1.087-4.356 1.087-6.845 0-2.448-.362-4.708-1.087-6.782s-1.782-3.858-3.17-5.351c-1.387-1.494-3.085-2.666-5.095-3.516-2.009-.85-4.297-1.276-6.866-1.276-2.568 0-4.857.426-6.866 1.276-2.009.85-3.707 2.022-5.095 3.516-1.388 1.493-2.444 3.277-3.17 5.35-.724 2.075-1.086 4.335-1.086 6.783 0 2.489.362 4.77 1.087 6.844.725 2.074 1.781 3.858 3.169 5.351 1.388 1.494 3.086 2.666 5.095 3.516 2.01.85 4.298 1.276 6.866 1.276zm0-5.6c-1.575 0-2.942-.332-4.102-.996a8.647 8.647 0 01-2.858-2.613 11.413 11.413 0 01-1.647-3.64 16.306 16.306 0 01-.528-4.138c0-1.369.176-2.738.528-4.107.352-1.369.901-2.582 1.647-3.64a8.782 8.782 0 012.858-2.582c1.16-.664 2.527-.996 4.101-.996 1.574 0 2.941.332 4.101.996a8.782 8.782 0 012.859 2.582c.745 1.058 1.294 2.271 1.646 3.64a16.44 16.44 0 01.528 4.107c0 1.41-.176 2.79-.528 4.138a11.413 11.413 0 01-1.646 3.64 8.647 8.647 0 01-2.859 2.613c-1.16.664-2.527.996-4.1.996zm27.96 4.728V27.912c0-1.162.187-2.261.56-3.298.373-1.037.89-1.94 1.554-2.707a7.008 7.008 0 012.423-1.804c.953-.436 2.03-.654 3.231-.654 2.113 0 3.666.57 4.66 1.712.995 1.14 1.533 2.976 1.616 5.506V46.89h7.084V24.801c0-3.65-1.015-6.389-3.045-8.214-2.03-1.825-4.805-2.738-8.327-2.738-2.112 0-4.038.509-5.778 1.525-1.74 1.016-3.149 2.416-4.226 4.2l-.124-.125v-4.728h-6.71v32.168h7.083zm39.83.872c1.658 0 3.335-.187 5.034-.56 1.698-.374 3.241-.975 4.63-1.805a10.324 10.324 0 003.386-3.235c.87-1.328 1.304-2.946 1.304-4.854 0-1.576-.3-2.903-.9-3.982a8.16 8.16 0 00-2.362-2.676c-.973-.705-2.081-1.265-3.324-1.68a39.429 39.429 0 00-3.79-1.057c-1.326-.29-2.61-.56-3.853-.81a23.155 23.155 0 01-3.324-.901c-.974-.353-1.76-.799-2.362-1.338-.6-.54-.9-1.245-.9-2.116 0-.705.207-1.275.62-1.71a4.052 4.052 0 011.523-.996 8.18 8.18 0 011.926-.467 14.988 14.988 0 011.771-.125c1.575 0 2.973.29 4.195.872 1.222.58 1.998 1.721 2.33 3.422h7.394c-.207-1.784-.715-3.308-1.522-4.574a10.042 10.042 0 00-3.045-3.08c-1.222-.788-2.589-1.358-4.101-1.71a20.87 20.87 0 00-4.754-.53c-1.45 0-2.972.146-4.567.436-1.594.29-3.044.799-4.35 1.524a9.769 9.769 0 00-3.23 2.863c-.85 1.182-1.274 2.644-1.274 4.386 0 1.618.29 2.977.87 4.076a7.76 7.76 0 002.33 2.707 12.326 12.326 0 003.293 1.68c1.222.414 2.496.767 3.822 1.057 1.284.29 2.547.56 3.79.81 1.243.248 2.35.549 3.324.901.974.353 1.771.82 2.393 1.4.621.581.952 1.328.994 2.24.041.913-.176 1.65-.653 2.21-.476.56-1.087.985-1.833 1.275a9.859 9.859 0 01-2.392.591c-.85.104-1.605.156-2.268.156-1.906 0-3.542-.415-4.909-1.245-1.367-.83-2.154-2.281-2.361-4.355h-7.084c.042 1.908.425 3.557 1.15 4.946a10.067 10.067 0 002.982 3.485c1.264.933 2.755 1.628 4.474 2.084 1.72.456 3.594.685 5.624.685z"/></g></g></svg>
