<svg xmlns="http://www.w3.org/2000/svg"  xmlns:xlink="http://www.w3.org/1999/xlink" viewBox="0 0 32 32">
<symbol id="reddit" viewBox="0 0 32 32">
<path d="M19.171 20.795c.145.144.145.364 0 .492-1.312 1.313-5.025 1.318-6.342 0-.145-.128-.145-.348 0-.492a.343.343 0 01.476 0c1.002 1.028 4.34 1.05 5.384 0a.36.36 0 01.482 0zm-4.89-2.883a1.429 1.429 0 10-2.855 0c-.001.783.636 1.42 1.435 1.42.782 0 1.42-.637 1.42-1.42zm4.858-1.435c-.782 0-1.42.637-1.42 1.436 0 .782.638 1.42 1.42 1.42a1.429 1.429 0 100-2.855zM32 32H0V0h32v32zm-9.341-17.896c-.541 0-1.018.225-1.371.573-1.292-.895-3.027-1.468-4.956-1.532l1.002-4.511 3.187.718c0 .782.638 1.42 1.42 1.42a1.44 1.44 0 001.436-1.436A1.44 1.44 0 0021.94 7.9c-.557 0-1.034.332-1.275.798l-3.52-.782c-.176-.048-.348.08-.396.257l-1.098 4.972c-1.913.08-3.632.653-4.923 1.548a1.92 1.92 0 00-1.388-.59c-2.009 0-2.668 2.7-.83 3.617-.065.289-.097.589-.097.894 0 3.027 3.413 5.48 7.602 5.48 4.205 0 7.618-2.453 7.618-5.48a3.45 3.45 0 00-.113-.91c1.8-.922 1.136-3.6-.862-3.6z"/>
</symbol>
<symbol id="snapchat" viewBox="0 0 32 32">
<path d="M31.991-.013v32h-32v-32h32zm-15.84 8.378l-.32.004c-.667 0-2.933.19-4.005 2.586-.405.91-.247 2.533-.18 3.672a.668.668 0 01-.315.066c-.214 0-.467-.066-.748-.2-.357-.166-.966.086-1.042.49-.048.234.057.577.81.872.29.12.98.253 1.142.629.067.157.043.357-.076.595-.005.005-.01.01-.01.014-.043.095-1.033 2.357-3.238 2.72a.337.337 0 00-.28.352c.032.662 1.509.919 2.166 1.019.066.09.119.471.205.762.038.128.138.285.395.285s.633-.147 1.228-.147c.838 0 1.124.19 1.781.652.472.333 1.31.943 2.31.867.99.043 1.652-.376 2.343-.867.652-.462.943-.652 1.78-.652.62 0 .934.138 1.23.138.218 0 .342-.105.394-.281.086-.29.139-.667.205-.757 1.272-.2 1.967-.481 2.134-.867.104-.252-.043-.467-.234-.514-2.205-.362-3.195-2.624-3.238-2.72l-.01-.014c-.114-.238-.142-.438-.076-.595.124-.3.596-.447.905-.547.086-.029.167-.053.234-.081.547-.215.823-.481.819-.79-.005-.244-.196-.458-.496-.568-.19-.076-.457-.09-.647 0-.262.124-.496.191-.7.2a.599.599 0 01-.272-.066c.067-1.143.224-2.762-.18-3.672-.777-1.738-2.363-2.585-4.015-2.585z"/>
</symbol>
<symbol id="facebook" viewBox="0 0 32 32">
<path d="M0 0v32h13.924V19.84H10.55V16h3.375v-2.927c0-3.33 1.982-5.169 5.018-5.169 1.454 0 2.974.26 2.974.26v3.267h-1.675c-1.65 0-2.165 1.025-2.165 2.075V16h3.685l-.59 3.84h-3.095V32H32V0H0z"/>
</symbol>
<symbol id="twitter" viewBox="0 0 32 32">
<path d="M0 0v32h32V0H0zm22.809 12.507c.01.15.01.306.01.456 0 4.644-3.535 9.996-9.996 9.996a9.95 9.95 0 01-5.394-1.575c.284.032.557.043.846.043a7.044 7.044 0 004.36-1.5 3.518 3.518 0 01-3.283-2.438c.54.08 1.028.08 1.585-.064a3.514 3.514 0 01-2.812-3.45v-.043a3.511 3.511 0 001.586.445 3.506 3.506 0 01-1.565-2.925c0-.654.172-1.254.477-1.773a9.976 9.976 0 007.243 3.675c-.498-2.384 1.286-4.318 3.429-4.318a3.5 3.5 0 012.566 1.109 6.885 6.885 0 002.228-.847 3.504 3.504 0 01-1.543 1.934 6.992 6.992 0 002.025-.546 7.395 7.395 0 01-1.762 1.821z"/>
</symbol>
<symbol id="instagram" viewBox="0 0 32 32">
<path d="M16 13.143a2.858 2.858 0 10.002 5.714A2.858 2.858 0 0016 13.143zm6.68-2.197a2.893 2.893 0 00-1.628-1.629c-1.125-.444-3.804-.345-5.052-.345-1.248 0-3.924-.103-5.052.345a2.893 2.893 0 00-1.63 1.63c-.443 1.124-.344 3.805-.344 5.052 0 1.248-.099 3.926.347 5.054a2.893 2.893 0 001.629 1.63c1.125.444 3.803.344 5.052.344 1.249 0 3.924.103 5.052-.345a2.893 2.893 0 001.629-1.629c.447-1.125.345-3.806.345-5.053 0-1.247.102-3.925-.345-5.053h-.002zM16 20.393a4.393 4.393 0 110-8.786 4.393 4.393 0 010 8.786zm4.574-7.945a1.025 1.025 0 11.727-.299 1.023 1.023 0 01-.725.301l-.002-.002zM0 0v32h32V0H0zm24.511 19.536c-.069 1.373-.382 2.59-1.384 3.589-1.003 1-2.218 1.32-3.59 1.385-1.415.08-5.656.08-7.071 0-1.373-.07-2.585-.383-3.59-1.385-1.003-1.002-1.319-2.219-1.384-3.59-.08-1.415-.08-5.657 0-7.07.069-1.374.379-2.59 1.385-3.59s2.221-1.316 3.589-1.381c1.415-.08 5.656-.08 7.071 0 1.373.069 2.59.383 3.59 1.385s1.32 2.219 1.384 3.592c.08 1.41.08 5.648 0 7.065z"/>
</symbol>
<symbol id="github" viewBox="0 0 32 32">
<path d="M0 0v32h32V0H0zm18.855 24.555c-.45.08-.616-.198-.616-.428 0-.29.011-1.768.011-2.963 0-.835-.279-1.366-.605-1.644 1.982-.22 4.071-.493 4.071-3.916 0-.975-.348-1.463-.916-2.09.091-.23.396-1.178-.091-2.41-.745-.23-2.448.959-2.448.959a8.346 8.346 0 00-2.229-.3c-.755 0-1.521.101-2.228.3 0 0-1.704-1.19-2.449-.96-.487 1.227-.187 2.176-.09 2.411-.569.627-.836 1.115-.836 2.09 0 3.407 1.998 3.696 3.98 3.916-.257.23-.488.626-.568 1.194-.509.23-1.81.627-2.587-.744a1.866 1.866 0 00-1.367-.916c-.867-.011-.058.546-.058.546.578.268.985 1.296.985 1.296.52 1.591 3.006 1.056 3.006 1.056 0 .744.01 1.955.01 2.175 0 .23-.16.509-.616.428-3.535-1.184-6.01-4.548-6.01-8.48 0-4.918 3.76-8.652 8.678-8.652 4.918 0 8.904 3.734 8.904 8.652.005 3.932-2.395 7.302-5.93 8.48zM13.6 21.282c-.102.022-.198-.021-.209-.09-.01-.081.059-.15.16-.172.103-.011.199.032.21.101.016.07-.054.14-.161.161zm-.509-.048c0 .07-.08.128-.187.128-.118.011-.199-.048-.199-.128 0-.07.08-.129.188-.129.102-.01.198.049.198.129zm-.734-.059c-.021.07-.128.102-.22.07-.101-.022-.17-.102-.15-.172.022-.07.13-.102.22-.08.107.032.177.112.15.182zm-.659-.29c-.048.06-.15.049-.23-.031-.08-.07-.102-.172-.048-.22.048-.059.15-.048.23.032.07.07.096.177.048.22zm-.487-.487c-.049.032-.14 0-.199-.08-.058-.08-.058-.172 0-.21.06-.047.15-.01.199.07.059.08.059.177 0 .22zm-.348-.52c-.049.049-.13.022-.188-.032-.059-.07-.07-.15-.021-.187.048-.048.128-.021.187.032.059.07.07.15.022.188zm-.36-.396c-.02.048-.09.06-.15.022-.07-.033-.101-.091-.08-.14.022-.032.08-.048.15-.021.07.037.102.096.08.14z"/>
</symbol>
<symbol id="linkedin" viewBox="0 0 32 32">
<path d="M32 0H0v32h32V0zM11.254 24.571H7.696V13.118h3.563V24.57h-.005zM9.475 11.554a2.063 2.063 0 010-4.125c1.136 0 2.063.926 2.063 2.062a2.06 2.06 0 01-2.063 2.063zM24.587 24.57H21.03V19c0-1.329-.026-3.037-1.848-3.037-1.853 0-2.137 1.446-2.137 2.94v5.668h-3.558V13.118H16.9v1.564h.048c.477-.9 1.64-1.848 3.37-1.848 3.6 0 4.27 2.373 4.27 5.459v6.278z"/>
</symbol>
<symbol id="whatsapp" viewBox="0 0 32 32">
<path d="M16 8.864c-3.895 0-7.06 3.166-7.066 7.061a7.03 7.03 0 001.082 3.755l.166.268-.712 2.604 2.673-.702.257.155a7.042 7.042 0 003.595.986H16c3.89 0 7.141-3.166 7.141-7.06 0-1.886-.814-3.66-2.148-4.993A7.007 7.007 0 0016 8.864zm4.152 10.093c-.177.498-1.023.948-1.43 1.007-.676.102-1.2.049-2.545-.53-2.127-.922-3.52-3.064-3.627-3.204-.107-.139-.868-1.151-.868-2.196 0-1.045.547-1.559.745-1.773a.773.773 0 01.568-.268c.139 0 .284 0 .407.005.128.006.305-.048.477.365.176.423.6 1.467.653 1.575.054.107.091.23.016.37-.407.813-.84.781-.621 1.156.82 1.41 1.64 1.897 2.887 2.524.215.107.338.09.461-.054.123-.14.53-.622.67-.83.139-.215.284-.177.476-.108.193.07 1.238.584 1.452.692.214.107.354.16.407.246.049.102.049.53-.128 1.023zM0 0v32h32V0H0zm15.995 24.421a8.488 8.488 0 01-4.061-1.034l-4.505 1.184 1.205-4.403a8.465 8.465 0 01-1.136-4.248c.006-4.682 3.814-8.491 8.497-8.491a8.44 8.44 0 016.01 2.49c1.602 1.608 2.566 3.74 2.566 6.011 0 4.683-3.894 8.491-8.576 8.491z"/>
</symbol>
<symbol id="vimeo" viewBox="0 0 32 32">
<path d="M0 0v32h32V0H0zm24.56 12.014c-.074 1.666-1.242 3.954-3.497 6.852-2.33 3.027-4.302 4.543-5.915 4.543-1.002 0-1.843-.921-2.534-2.764-1.35-4.945-1.923-7.843-3.037-7.843-.129 0-.579.268-1.345.809l-.803-1.04c1.976-1.735 3.862-3.664 5.04-3.771 1.335-.129 2.154.782 2.465 2.737 1.098 6.943 1.586 7.993 3.579 4.849.717-1.136 1.103-1.993 1.151-2.588.182-1.757-1.371-1.64-2.421-1.19.84-2.758 2.453-4.097 4.827-4.022 1.762.053 2.593 1.2 2.49 3.428z"/>
</symbol>
<symbol id="youtube" viewBox="0 0 32 32">
<path d="M14.007 13.113l5.1 2.898-5.1 2.898v-5.796zM32 0v32H0V0h32zm-6.25 16.016s0-3.193-.407-4.725a2.445 2.445 0 00-1.725-1.736C22.102 9.143 16 9.143 16 9.143s-6.102 0-7.618.412c-.84.225-1.5.89-1.725 1.736-.407 1.527-.407 4.725-.407 4.725s0 3.193.407 4.725a2.41 2.41 0 001.725 1.709c1.516.407 7.618.407 7.618.407s6.102 0 7.618-.412a2.41 2.41 0 001.725-1.71c.407-1.526.407-4.719.407-4.719z"/>
</symbol>
<symbol id="pinterest" viewBox="0 0 32 32">
<path fill-rule="evenodd" d="M31.943 0L32 32H.057L0 0h31.943zm-15.65 8.508c-5.702 0-8.72 3.708-8.72 7.75 0 1.878 1.035 4.22 2.683 4.963.25.12.383.065.44-.177.04-.176.27-1.05.375-1.45a.395.395 0 00-.087-.371c-.546-.641-.987-1.821-.987-2.918 0-2.825 2.204-5.557 5.96-5.557 3.248 0 5.509 2.137 5.509 5.213 0 3.466-1.801 5.864-4.149 5.864-1.293 0-2.27-1.04-1.954-2.314.374-1.524 1.092-3.169 1.092-4.256 0-.985-.536-1.803-1.677-1.803-1.331 0-2.385 1.329-2.385 3.113 0 1.134.393 1.896.393 1.896s-1.313 5.362-1.553 6.366c-.268 1.105-.162 2.657-.048 3.67l.115.995v-.019c1.198-1.04 2.022-2.518 2.424-4.033l.824-3.039c.432.8 1.696 1.468 3.028 1.468 3.986 0 6.85-3.55 6.85-7.964 0-4.237-3.564-7.397-8.134-7.397z"/>
</symbol>
</svg>